<?xml version="1.0" encoding="utf-8"?>
<!-- Generator: Adobe Illustrator 19.0.0, SVG Export Plug-In . SVG Version: 6.00 Build 0)  -->
<svg version="1.1" id="Слой_1" xmlns="http://www.w3.org/2000/svg" xmlns:xlink="http://www.w3.org/1999/xlink" x="0px" y="0px"
	 viewBox="0 0 242 242" style="enable-background:new 0 0 242 242;" xml:space="preserve">
<style type="text/css">
	.st0{fill:#FFFFFF;}
	.st1{fill:#2C8C91;}
</style>
<g id="XMLID_2_">
	<circle id="XMLID_3_" class="st0" cx="121" cy="121" r="120"/>
	<g id="XMLID_1_">
		<g id="XMLID_286_">
			<path id="XMLID_318_" class="st1" d="M39.4,127.1l-1.7-5.1h-7.3l-1.7,5.1h-3.1l6.9-19h3.2l6.9,19H39.4z M34,111.2l-2.8,8.3h5.7
				L34,111.2L34,111.2z"/>
			<path id="XMLID_315_" class="st1" d="M49.4,127.2c-1.8,0-3.3-0.7-4.4-2c-1.1-1.3-1.7-3.1-1.7-5.3c0-2.2,0.6-4,1.7-5.3
				c1.1-1.3,2.6-2,4.3-2c1,0,1.9,0.2,2.7,0.7c0.8,0.4,1.4,1.1,1.8,1.9h0.1v-7.9h2.8v19.9H54v-2.4h-0.1c-0.4,0.8-1,1.5-1.8,1.9
				C51.3,127,50.4,127.2,49.4,127.2z M50.1,115.1c-1.2,0-2.1,0.4-2.8,1.3s-1.1,2.1-1.1,3.5c0,1.5,0.3,2.7,1,3.6
				c0.7,0.9,1.6,1.3,2.8,1.3c1.2,0,2.1-0.4,2.8-1.3s1.1-2.1,1.1-3.5s-0.4-2.6-1.1-3.5S51.2,115.1,50.1,115.1z"/>
			<path id="XMLID_312_" class="st1" d="M65.2,127.2c-1.8,0-3.3-0.7-4.4-2c-1.1-1.3-1.7-3.1-1.7-5.3c0-2.2,0.6-4,1.7-5.3
				c1.1-1.3,2.6-2,4.3-2c1,0,1.9,0.2,2.7,0.7c0.8,0.4,1.4,1.1,1.8,1.9h0.1v-7.9h2.8v19.9h-2.8v-2.4h-0.1c-0.4,0.8-1,1.5-1.8,1.9
				C67.1,127,66.2,127.2,65.2,127.2z M65.9,115.1c-1.2,0-2.1,0.4-2.8,1.3s-1.1,2.1-1.1,3.5c0,1.5,0.3,2.7,1,3.6
				c0.7,0.9,1.6,1.3,2.8,1.3c1.2,0,2.1-0.4,2.8-1.3s1.1-2.1,1.1-3.5s-0.4-2.6-1.1-3.5S67,115.1,65.9,115.1z"/>
			<path id="XMLID_309_" class="st1" d="M89.2,112.6c1.8,0,3.3,0.7,4.4,2c1.1,1.3,1.7,3.1,1.7,5.3c0,2.2-0.5,4-1.6,5.3
				c-1.1,1.3-2.5,2-4.3,2c-1,0-1.9-0.2-2.7-0.7c-0.8-0.4-1.4-1-1.8-1.8h-0.1v7h-2.9v-19h2.8v2.4h0.1c0.4-0.8,1-1.4,1.8-1.8
				C87.3,112.9,88.2,112.6,89.2,112.6z M88.5,124.8c1.2,0,2.1-0.4,2.8-1.3s1.1-2.1,1.1-3.5s-0.4-2.7-1.1-3.5s-1.6-1.3-2.8-1.3
				c-1.1,0-2.1,0.4-2.8,1.3s-1.1,2.1-1.1,3.5c0,1.5,0.4,2.6,1.1,3.5C86.4,124.4,87.3,124.8,88.5,124.8z"/>
			<path id="XMLID_307_" class="st1" d="M97.7,127.1v-19.9h2.8v8h0.1c0.9-1.7,2.4-2.6,4.7-2.6c1.6,0,2.8,0.5,3.8,1.5
				c1,1,1.4,2.3,1.4,3.9v9.1h-2.8v-8.6c0-1.1-0.3-1.9-0.9-2.5s-1.4-0.9-2.5-0.9c-1.1,0-2,0.4-2.7,1.1c-0.7,0.7-1,1.6-1,2.8v8.2H97.7
				z"/>
			<path id="XMLID_304_" class="st1" d="M124.4,125.3c-1.2,1.3-2.9,2-4.9,2s-3.7-0.7-4.9-2s-1.8-3.1-1.8-5.4c0-2.2,0.6-4,1.8-5.4
				c1.2-1.3,2.9-2,4.9-2s3.7,0.7,4.9,2s1.8,3.1,1.8,5.4C126.2,122.2,125.6,124,124.4,125.3z M116.6,123.6c0.7,0.9,1.6,1.3,2.8,1.3
				s2.2-0.4,2.8-1.3c0.7-0.9,1-2.1,1-3.7s-0.3-2.8-1-3.7c-0.7-0.9-1.6-1.3-2.8-1.3s-2.2,0.4-2.8,1.3s-1,2.1-1,3.7
				S115.9,122.7,116.6,123.6z"/>
			<path id="XMLID_302_" class="st1" d="M129.3,109.6h2.8v3.2h2.7v2.3h-2.7v8c0,0.6,0.1,1.1,0.4,1.4c0.3,0.3,0.7,0.4,1.3,0.4
				c0.3,0,0.7,0,1-0.1v2.3c-0.4,0.1-0.9,0.1-1.6,0.1c-1.4,0-2.5-0.3-3.1-0.9c-0.6-0.6-0.9-1.6-0.9-3V115h-2v-2.3h2V109.6z"/>
			<path id="XMLID_299_" class="st1" d="M148.1,125.3c-1.2,1.3-2.9,2-4.9,2s-3.7-0.7-4.9-2s-1.8-3.1-1.8-5.4c0-2.2,0.6-4,1.8-5.4
				s2.9-2,4.9-2c2.1,0,3.7,0.7,4.9,2c1.2,1.3,1.8,3.1,1.8,5.4C149.9,122.2,149.3,124,148.1,125.3z M140.3,123.6
				c0.7,0.9,1.6,1.3,2.8,1.3s2.2-0.4,2.8-1.3c0.7-0.9,1-2.1,1-3.7s-0.3-2.8-1-3.7c-0.7-0.9-1.6-1.3-2.8-1.3s-2.2,0.4-2.8,1.3
				s-1,2.1-1,3.7S139.6,122.7,140.3,123.6z"/>
			<path id="XMLID_296_" class="st1" d="M162.6,127.2c-1.4,0-2.6-0.4-3.5-1.2c-0.9-0.8-1.3-1.8-1.3-3.1c0-1.2,0.5-2.2,1.4-2.9
				s2.3-1.1,4.1-1.2l3.9-0.2v-1.1c0-0.8-0.3-1.4-0.8-1.9c-0.5-0.4-1.3-0.7-2.2-0.7c-0.8,0-1.4,0.2-2,0.6c-0.5,0.4-0.9,0.9-1,1.5
				h-2.7c0-1.3,0.6-2.3,1.7-3.2s2.4-1.3,4-1.3c1.7,0,3.1,0.4,4.2,1.3c1,0.9,1.6,2,1.6,3.4v9.8h-2.7v-2.4h-0.1
				c-0.4,0.8-1,1.4-1.8,1.8S163.6,127.2,162.6,127.2z M163.4,125c1.1,0,2-0.3,2.7-0.9c0.7-0.6,1.1-1.4,1.1-2.3v-1.1l-3.5,0.2
				c-2,0.1-3,0.8-3,2.1c0,0.6,0.2,1.1,0.7,1.5S162.6,125,163.4,125z"/>
			<path id="XMLID_294_" class="st1" d="M172.6,116.8c0-1.3,0.5-2.3,1.5-3.1c1-0.8,2.4-1.2,4-1.2c1.6,0,2.9,0.4,3.9,1.2
				c1,0.8,1.6,1.8,1.6,3.1h-2.7c-0.1-0.6-0.3-1.1-0.9-1.5s-1.2-0.6-2-0.6c-0.8,0-1.5,0.2-2,0.5c-0.5,0.3-0.7,0.8-0.7,1.4
				c0,0.9,0.7,1.5,2.2,1.8l2.4,0.6c1.4,0.4,2.5,0.8,3.1,1.4s0.9,1.4,0.9,2.5c0,1.3-0.5,2.3-1.6,3.1c-1.1,0.8-2.5,1.2-4.2,1.2
				c-1.7,0-3-0.4-4.1-1.2c-1.1-0.8-1.6-1.8-1.7-3.1h2.8c0.1,0.7,0.4,1.2,1,1.6c0.5,0.4,1.3,0.5,2.2,0.5c0.9,0,1.6-0.2,2.1-0.5
				c0.5-0.3,0.8-0.8,0.8-1.4c0-0.5-0.2-0.8-0.5-1.1c-0.3-0.3-0.8-0.5-1.6-0.7l-2.6-0.6C173.9,120.1,172.6,118.8,172.6,116.8z"/>
			<path id="XMLID_292_" class="st1" d="M186,116.8c0-1.3,0.5-2.3,1.5-3.1c1-0.8,2.4-1.2,4-1.2c1.6,0,2.9,0.4,3.9,1.2
				c1,0.8,1.6,1.8,1.6,3.1h-2.7c-0.1-0.6-0.3-1.1-0.9-1.5s-1.2-0.6-2-0.6c-0.8,0-1.5,0.2-2,0.5c-0.5,0.3-0.7,0.8-0.7,1.4
				c0,0.9,0.7,1.5,2.2,1.8l2.4,0.6c1.4,0.4,2.5,0.8,3.1,1.4s0.9,1.4,0.9,2.5c0,1.3-0.5,2.3-1.6,3.1c-1.1,0.8-2.5,1.2-4.2,1.2
				c-1.7,0-3-0.4-4.1-1.2c-1.1-0.8-1.6-1.8-1.7-3.1h2.8c0.1,0.7,0.4,1.2,1,1.6c0.5,0.4,1.3,0.5,2.2,0.5c0.9,0,1.6-0.2,2.1-0.5
				c0.5-0.3,0.8-0.8,0.8-1.4c0-0.5-0.2-0.8-0.5-1.1c-0.3-0.3-0.8-0.5-1.6-0.7l-2.6-0.6C187.3,120.1,186,118.8,186,116.8z"/>
			<path id="XMLID_289_" class="st1" d="M209.2,122.9h2.7c-0.2,1.3-0.9,2.3-2,3.1s-2.5,1.2-4.1,1.2c-2.1,0-3.7-0.7-4.9-2
				c-1.2-1.3-1.8-3.1-1.8-5.3c0-2.2,0.6-4,1.8-5.4s2.8-2,4.8-2c2,0,3.5,0.6,4.7,1.9s1.7,3,1.7,5.2v1h-10.1v0.2c0,1.2,0.4,2.2,1.1,3
				c0.7,0.8,1.7,1.1,2.8,1.1c0.8,0,1.6-0.2,2.2-0.6S209,123.5,209.2,122.9z M205.6,114.9c-1,0-1.9,0.3-2.6,1s-1.1,1.6-1.1,2.7h7.3
				c0-1.1-0.4-2-1-2.7S206.7,114.9,205.6,114.9z"/>
			<path id="XMLID_287_" class="st1" d="M215.2,109.6h2.8v3.2h2.7v2.3H218v8c0,0.6,0.1,1.1,0.4,1.4c0.3,0.3,0.7,0.4,1.3,0.4
				c0.3,0,0.7,0,1-0.1v2.3c-0.4,0.1-0.9,0.1-1.6,0.1c-1.4,0-2.5-0.3-3.1-0.9c-0.6-0.6-0.9-1.6-0.9-3V115h-2v-2.3h2V109.6z"/>
		</g>
	</g>
</g>
</svg>
