<?xml version="1.0" encoding="utf-8"?>
<!-- Generator: Adobe Illustrator 19.2.1, SVG Export Plug-In . SVG Version: 6.00 Build 0)  -->
<svg version="1.1" id="Слой_1" xmlns="http://www.w3.org/2000/svg" xmlns:xlink="http://www.w3.org/1999/xlink" x="0px" y="0px"
	 viewBox="0 0 44 44" style="enable-background:new 0 0 44 44;" xml:space="preserve">
<style type="text/css">
	.st0{fill:#2D8D92;}
</style>
<path class="st0" d="M21.4,2.3C29,2.3,36,6.9,38.8,13.9H27.2v2.3h15.1V1.2h-2.3v10.4C36.5,4.5,29.4,0,21.4,0C10,0,0.6,9.3,0.6,20.8
	h2.3C2.9,10.6,11.2,2.3,21.4,2.3z M41.1,23.2c0,10.3-8.3,18.5-18.5,18.5C15,41.7,8,37.1,5.2,30.1h11.6v-2.3H1.7v15.1h2.3V32.4
	C7.5,39.5,14.6,44,22.6,44c11.5,0,20.8-9.3,20.8-20.8H41.1z"/>
</svg>
