<?xml version="1.0" encoding="utf-8"?>
<!-- Generator: Adobe Illustrator 19.2.1, SVG Export Plug-In . SVG Version: 6.00 Build 0)  -->
<svg version="1.1" id="Слой_1" xmlns="http://www.w3.org/2000/svg" xmlns:xlink="http://www.w3.org/1999/xlink" x="0px" y="0px"
	 viewBox="0 0 108 108" style="enable-background:new 0 0 108 108;" xml:space="preserve">
<style type="text/css">
	.st0{fill:#3FA8B2;}
	.st1{fill:#FFFFFF;}
</style>
<g>
	<circle class="st0" cx="54" cy="54" r="54"/>
	<path class="st1" d="M72.9,74.8c-2.2-1.5-3.3-2.6-8.2-2.6c-3.4,0-6.7,2.4-10,2.4c-3.4,0-6.7-2.4-10-2.4c-3.8,0-6.6,1.8-8.2,2.9
		c-2.1,1.3-3.2-1-1.5-2.2c0,0,3.2-3.1,9.9-3.1c3.7,0,6.2,2.4,9.9,2.4c3.8,0,6.3-2.4,10-2.4c6.3,0,10,3.1,10,3.1
		C76.3,74.1,74.5,76.1,72.9,74.8z M54,52.6c-0.2-4.8-4.7-20.1-4.7-20.1s11.2,7.4,15.9,13.3s9,13.3,9,13.3h-4.5
		c0,0-5.4-11.6-15.8-20.3c3.2,9.8,2.3,20.3,2.3,20.3H54C54,59,54.2,57.4,54,52.6z M49.5,41.2c0,0-1.3,9-4.1,13.5
		C42.5,59.1,36,61,36,61h4.5c0,0,8.5-0.2,8.5-8.1c0,5.8,0,8.1,0,8.1h2.8L49.5,41.2z M27,66.1c0.8,4.7,4.3,6.1,4.3,6.1l1.8-1.4
		c0,0-1.8-1.2-2.1-3l46.9-4c0,0,0.8,3.3-3.3,4l1.3,1.8c5.1,0,5.1-8.4,5.1-8.4L27,66.1z"/>
</g>
</svg>
