<?xml version="1.0" encoding="utf-8"?>
<!-- Generator: Adobe Illustrator 19.2.1, SVG Export Plug-In . SVG Version: 6.00 Build 0)  -->
<svg version="1.1" id="Слой_1" xmlns="http://www.w3.org/2000/svg" xmlns:xlink="http://www.w3.org/1999/xlink" x="0px" y="0px"
	 viewBox="0 0 54 54" style="enable-background:new 0 0 54 54;" xml:space="preserve">
<style type="text/css">
	.st0{display:none;}
	.st1{display:inline;fill:#41A9B2;}
	.st2{fill:#3FA8B2;}
</style>
<g class="st0">
	<path class="st1" d="M27,7c11,0,20,9,20,20s-9,20-20,20S7,38,7,27S16,7,27,7 M27,5C14.8,5,5,14.8,5,27s9.8,22,22,22s22-9.8,22-22
		S39.2,5,27,5L27,5z"/>
	<circle class="st1" cx="27" cy="27" r="4"/>
</g>
<g>
	<path class="st2" d="M27,5C14.8,5,5,14.9,5,27s9.8,22,22,22c12.2,0,22-9.8,22-22S39.2,5,27,5z M27,44.6c-9.7,0-17.6-7.9-17.6-17.6
		c0-9.8,7.9-17.6,17.6-17.6c9.8,0,17.6,7.9,17.6,17.6C44.6,36.7,36.7,44.6,27,44.6z"/>
	<path class="st2" d="M27,21.2c-3.2,0-5.8,2.6-5.8,5.8c0,3.2,2.6,5.8,5.8,5.8c3.2,0,5.8-2.6,5.8-5.8C32.8,23.8,30.2,21.2,27,21.2z"
		/>
</g>
</svg>
