<?xml version="1.0" encoding="utf-8"?>
<!-- Generator: Adobe Illustrator 19.2.1, SVG Export Plug-In . SVG Version: 6.00 Build 0)  -->
<svg version="1.1" id="Слой_1" xmlns="http://www.w3.org/2000/svg" xmlns:xlink="http://www.w3.org/1999/xlink" x="0px" y="0px"
	 viewBox="0 0 44 44" style="enable-background:new 0 0 44 44;" xml:space="preserve">
<style type="text/css">
	.st0{fill:#2D8D92;}
</style>
<path class="st0" d="M35.8,29.3v-6.9c0-6.4-4.4-11.9-10.4-13.4c1.1-0.9,1.7-2.3,1.7-3.9C27.2,2.3,24.9,0,22,0
	c-2.9,0-5.2,2.3-5.2,5.2c0,1.5,0.7,2.9,1.7,3.9c-6,1.5-10.4,7-10.4,13.4v6.9L6.5,38h8.6c0,3.5,3.6,6,6.9,6c3.3,0,6.9-2.5,6.9-6h8.6
	L35.8,29.3z M18.5,5.2c0-1.9,1.5-3.5,3.5-3.5c1.9,0,3.5,1.6,3.5,3.5c0,1.8-1.6,3.3-3.5,3.5c-0.1,0,0.1,0,0,0
	C20.2,8.5,18.5,7,18.5,5.2z M22,42.3c-2.4,0-5.2-1.8-5.2-4.3h10.4C27.2,40.4,24.4,42.3,22,42.3z M8.2,36.2l1.7-6.9v-6.9
	c0-6.5,5.6-11.9,12.1-12.1c0.1,0-0.1,0,0,0c6.5,0.2,12.1,5.5,12.1,12.1v6.9l1.7,6.9H8.2z"/>
</svg>
