<?xml version="1.0" encoding="utf-8"?>
<!-- Generator: Adobe Illustrator 19.2.1, SVG Export Plug-In . SVG Version: 6.00 Build 0)  -->
<svg version="1.1" id="Слой_1" xmlns="http://www.w3.org/2000/svg" xmlns:xlink="http://www.w3.org/1999/xlink" x="0px" y="0px"
	 viewBox="0 0 44 44" style="enable-background:new 0 0 44 44;" xml:space="preserve">
<style type="text/css">
	.st0{fill:#2D8D92;}
</style>
<path class="st0" d="M22,8.8c-3.9,0-7,3.1-7,7s3.1,7,7,7s7-3.1,7-7S25.9,8.8,22,8.8z M22,21.1c-3,0-5.3-2.3-5.3-5.3
	c0-3,2.3-5.3,5.3-5.3c3,0,5.3,2.3,5.3,5.3C27.3,18.8,25,21.1,22,21.1z M22,0C13.2,0,6.2,7.3,6.2,15.8C6.2,28.8,22,44,22,44
	s15.8-15.2,15.8-28.2C37.8,7.3,30.8,0,22,0z M22,41.4C18.4,37.6,7.9,25.9,7.9,15.8C7.9,8.2,14.4,1.8,22,1.8s14.1,6.4,14.1,14.1
	C36.1,25.9,25.6,37.6,22,41.4z"/>
</svg>
