<?xml version="1.0" encoding="utf-8"?>
<!-- Generator: Adobe Illustrator 19.2.1, SVG Export Plug-In . SVG Version: 6.00 Build 0)  -->
<svg version="1.1" id="Слой_1" xmlns="http://www.w3.org/2000/svg" xmlns:xlink="http://www.w3.org/1999/xlink" x="0px" y="0px"
	 viewBox="0 0 54 54" style="enable-background:new 0 0 54 54;" xml:space="preserve">
<style type="text/css">
	.st0{fill:#3FA8B2;}
</style>
<g>
	<g>
		<path class="st0" d="M24.8,30.8l-5.9-5.9c-0.9-0.9-2.3-0.9-3.2,0c-0.9,0.9-0.9,2.3,0,3.2l9.7,9.7c0.1,0.1,0.1,0.1,0.2,0.1
			c0.1,0.1,0.3,0.2,0.5,0.3c0,0,0.1,0,0.1,0c0.3,0.1,0.6,0.2,0.9,0.2s0.6-0.1,0.9-0.2c0,0,0.1,0,0.1,0c0.2-0.1,0.3-0.2,0.4-0.3
			c0.1-0.1,0.2-0.1,0.2-0.1l9.7-9.7c0.9-0.9,0.9-2.3,0-3.2c-0.9-0.9-2.3-0.9-3.2,0l-5.9,5.9l0-25.6c-0.7-0.1-1.5-0.1-2.3-0.1
			c-0.8,0-1.5,0-2.3,0.1L24.8,30.8z"/>
		<path class="st0" d="M33.7,6.1v4.8c6.3,2.6,10.8,8.9,10.8,16.1c0,9.6-7.8,17.5-17.5,17.5S9.5,36.7,9.5,27.1
			c0-7.3,4.5-13.5,10.8-16.1V6.1C11.5,9,5.1,17.3,5.1,27.1C5.1,39.2,14.9,49,27,49c12.1,0,21.9-9.8,21.9-21.9
			C48.9,17.2,42.5,9,33.7,6.1"/>
	</g>
</g>
</svg>
