<?xml version="1.0" encoding="utf-8"?>
<!-- Generator: Adobe Illustrator 19.0.0, SVG Export Plug-In . SVG Version: 6.00 Build 0)  -->
<svg version="1.1" id="Слой_1" xmlns="http://www.w3.org/2000/svg" xmlns:xlink="http://www.w3.org/1999/xlink" x="0px" y="0px"
	 viewBox="0 0 231 231" style="enable-background:new 0 0 231 231;" xml:space="preserve">
<style type="text/css">
	.st0{fill:#FFFFFF;}
	.st1{fill:#248CBA;}
</style>
<circle id="XMLID_1_" class="st0" cx="115.5" cy="115.5" r="115.5"/>
<path id="XMLID_2_" class="st1" d="M66.1,103.1l-1.7,5.1h-2.2L67.8,92h2.5l5.5,16.2h-2.2l-1.7-5.1H66.1z M71.4,101.4l-1.6-4.7
	c-0.4-1.1-0.6-2-0.8-3h0c-0.2,1-0.5,1.9-0.8,2.9l-1.6,4.7H71.4z"/>
<path id="XMLID_11_" class="st1" d="M87.8,91.1v14c0,1,0,2.2,0.1,3H86l-0.1-2h0c-0.6,1.3-2.1,2.3-4,2.3c-2.8,0-5-2.4-5-5.9
	c0-3.9,2.4-6.2,5.2-6.2c1.8,0,3,0.8,3.5,1.8h0v-6.9H87.8z M85.7,101.3c0-0.3,0-0.6-0.1-0.9c-0.3-1.3-1.5-2.4-3-2.4
	c-2.2,0-3.5,1.9-3.5,4.5c0,2.4,1.2,4.3,3.4,4.3c1.4,0,2.7-0.9,3.1-2.5c0.1-0.3,0.1-0.6,0.1-0.9V101.3z"/>
<path id="XMLID_14_" class="st1" d="M101.4,91.1v14c0,1,0,2.2,0.1,3h-1.9l-0.1-2h0c-0.6,1.3-2.1,2.3-4,2.3c-2.8,0-5-2.4-5-5.9
	c0-3.9,2.4-6.2,5.2-6.2c1.8,0,3,0.8,3.5,1.8h0v-6.9H101.4z M99.3,101.3c0-0.3,0-0.6-0.1-0.9c-0.3-1.3-1.5-2.4-3-2.4
	c-2.2,0-3.5,1.9-3.5,4.5c0,2.4,1.2,4.3,3.4,4.3c1.4,0,2.7-0.9,3.1-2.5c0.1-0.3,0.1-0.6,0.1-0.9V101.3z"/>
<path id="XMLID_17_" class="st1" d="M110,100.3c0-1.5,0-2.7-0.1-3.8h1.9l0.1,2h0c0.9-1.4,2.2-2.3,4.1-2.3c2.8,0,4.9,2.4,4.9,5.9
	c0,4.2-2.5,6.2-5.3,6.2c-1.5,0-2.9-0.7-3.6-1.8h0v6.3H110V100.3z M112.1,103.4c0,0.3,0,0.6,0.1,0.9c0.4,1.5,1.7,2.5,3.2,2.5
	c2.2,0,3.5-1.8,3.5-4.5c0-2.3-1.2-4.3-3.5-4.3c-1.4,0-2.8,1-3.2,2.6c-0.1,0.3-0.1,0.6-0.1,0.9V103.4z"/>
<path id="XMLID_24_" class="st1" d="M123.6,91.1h2.1v7.2h0c0.3-0.6,0.9-1.1,1.5-1.5c0.6-0.4,1.4-0.6,2.2-0.6c1.6,0,4.1,1,4.1,5v6.9
	h-2.1v-6.7c0-1.9-0.7-3.5-2.7-3.5c-1.4,0-2.4,1-2.8,2.1c-0.1,0.3-0.1,0.6-0.1,1v7h-2.1V91.1z"/>
<path id="XMLID_27_" class="st1" d="M147.5,102.2c0,4.3-3,6.2-5.8,6.2c-3.1,0-5.6-2.3-5.6-6c0-3.9,2.5-6.2,5.8-6.2
	C145.2,96.3,147.5,98.7,147.5,102.2z M138.2,102.4c0,2.5,1.5,4.5,3.5,4.5c2,0,3.5-1.9,3.5-4.5c0-2-1-4.5-3.5-4.5
	S138.2,100.2,138.2,102.4z"/>
<path id="XMLID_30_" class="st1" d="M152.7,93.2v3.3h3v1.6h-3v6.3c0,1.4,0.4,2.3,1.6,2.3c0.6,0,1-0.1,1.2-0.1l0.1,1.6
	c-0.4,0.2-1.1,0.3-1.9,0.3c-1,0-1.8-0.3-2.3-0.9c-0.6-0.6-0.8-1.7-0.8-3v-6.3h-1.8v-1.6h1.8v-2.8L152.7,93.2z"/>
<path id="XMLID_32_" class="st1" d="M168.4,102.2c0,4.3-3,6.2-5.8,6.2c-3.1,0-5.6-2.3-5.6-6c0-3.9,2.5-6.2,5.8-6.2
	C166.2,96.3,168.4,98.7,168.4,102.2z M159.2,102.4c0,2.5,1.5,4.5,3.5,4.5c2,0,3.5-1.9,3.5-4.5c0-2-1-4.5-3.5-4.5
	C160.3,97.8,159.2,100.2,159.2,102.4z"/>
<path id="XMLID_37_" class="st1" d="M98.4,136.9l-0.2-1.5h-0.1c-0.6,0.9-1.9,1.7-3.6,1.7c-2.4,0-3.6-1.7-3.6-3.3
	c0-2.8,2.5-4.3,7-4.3v-0.2c0-1-0.3-2.7-2.6-2.7c-1.1,0-2.2,0.3-3,0.9l-0.5-1.4c1-0.6,2.4-1,3.8-1c3.6,0,4.4,2.4,4.4,4.8v4.3
	c0,1,0,2,0.2,2.8H98.4z M98.1,131c-2.3,0-4.9,0.4-4.9,2.6c0,1.4,0.9,2,2,2c1.5,0,2.5-1,2.8-1.9c0.1-0.2,0.1-0.5,0.1-0.7V131z"/>
<path id="XMLID_40_" class="st1" d="M103.3,134.8c0.6,0.4,1.7,0.8,2.8,0.8c1.5,0,2.3-0.8,2.3-1.7c0-1-0.6-1.6-2.2-2.1
	c-2.1-0.7-3.1-1.9-3.1-3.3c0-1.9,1.5-3.4,4-3.4c1.2,0,2.2,0.3,2.9,0.7l-0.5,1.5c-0.5-0.3-1.3-0.7-2.4-0.7c-1.2,0-1.9,0.7-1.9,1.6
	c0,1,0.7,1.4,2.2,2c2,0.8,3,1.8,3,3.5c0,2-1.6,3.5-4.3,3.5c-1.3,0-2.4-0.3-3.3-0.8L103.3,134.8z"/>
<path id="XMLID_42_" class="st1" d="M112.8,134.8c0.6,0.4,1.7,0.8,2.8,0.8c1.5,0,2.3-0.8,2.3-1.7c0-1-0.6-1.6-2.2-2.1
	c-2.1-0.7-3.1-1.9-3.1-3.3c0-1.9,1.5-3.4,4-3.4c1.2,0,2.2,0.3,2.9,0.7l-0.5,1.5c-0.5-0.3-1.3-0.7-2.4-0.7c-1.2,0-1.9,0.7-1.9,1.6
	c0,1,0.7,1.4,2.2,2c2,0.8,3,1.8,3,3.5c0,2-1.6,3.5-4.3,3.5c-1.3,0-2.4-0.3-3.3-0.8L112.8,134.8z"/>
<path id="XMLID_44_" class="st1" d="M123.7,131.5c0,2.9,1.9,4,4,4c1.5,0,2.4-0.3,3.2-0.6l0.4,1.5c-0.7,0.3-2,0.7-3.9,0.7
	c-3.6,0-5.7-2.4-5.7-5.9c0-3.5,2.1-6.3,5.4-6.3c3.8,0,4.8,3.3,4.8,5.5c0,0.4,0,0.8-0.1,1H123.7z M129.9,130c0-1.3-0.6-3.4-2.9-3.4
	c-2.1,0-3.1,2-3.2,3.4H129.9z"/>
<path id="XMLID_51_" class="st1" d="M137.1,122v3.3h3v1.6h-3v6.3c0,1.4,0.4,2.3,1.6,2.3c0.6,0,1-0.1,1.2-0.1l0.1,1.6
	c-0.4,0.2-1.1,0.3-1.9,0.3c-1,0-1.8-0.3-2.3-0.9c-0.6-0.6-0.8-1.7-0.8-3v-6.3h-1.8v-1.6h1.8v-2.8L137.1,122z"/>
</svg>
